<!-- icon666.com - MILLIONS vector ICONS FREE --><svg id="Fill_Outline" viewBox="0 0 64 64" xmlns="http://www.w3.org/2000/svg"><g id="Color"><g><path d="m40.27 38.061c-4.773 1.273-9.786 1.347-14.594.215l-1.148-.27c-4.579-1.077-7.245-5.854-5.757-10.317l2.229-6.689h23l1.939 7.27c1.138 4.269-1.4 8.653-5.669 9.791z" fill="#656b76"></path><path d="m39 40h-3v-5h-8v5h-3c-4.971 0-9 4.029-9 9v10c0 1.105.895 2 2 2h28c1.105 0 2-.895 2-2v-10c0-4.971-4.029-9-9-9z" fill="#d0d8da"></path><path d="m48 59v-10c0-4.971-4.029-9-9-9h-4l-8 6v15h19c1.105 0 2-.895 2-2z" fill="#b8bebf"></path><path d="m36 40v-5h-8v5l4 3z" fill="#f6b98d"></path><path d="m30.293 40.997c2.084-.036 4.086-.768 5.707-2.077v-3.92h-8v5l2.688 2.016c-.157-.327-.29-.667-.395-1.019z" fill="#f3a268"></path><path d="m39 40h-3l-8 6v15h18c1.105 0 2-.895 2-2v-10c0-4.971-4.029-9-9-9z" fill="#e9f1f2"></path><path d="m37 46c-2.218 0-4.177-1.046-5.459-2.656l-3.541 2.656v15h18c1.105 0 2-.895 2-2v-10c0-1.054-.19-2.06-.523-3z" fill="#d0d8da"></path><path d="m38.828 36.172-.083.083c-1.766 1.766-4.137 2.748-6.61 2.749h-.247c-2.485.001-4.869-.985-6.626-2.743l-.076-.076c-2.047-2.047-3.189-4.806-3.188-7.681.002-3.404.002-7.504.002-7.504h20s0 4.1.002 7.506c.001 2.875-1.141 5.633-3.174 7.666z" fill="#f9cdae"></path><path d="m42 27v-6h2c1.105 0 2 .895 2 2 0 2.209-1.791 4-4 4z" fill="#f6b98d"></path><path d="m22 27c-2.209 0-4-1.791-4-4 0-1.105.895-2 2-2h2z" fill="#f6b98d"></path><g><path d="m47 61h-3c-.552 0-1-.448-1-1v-5c0-.552.448-1 1-1h3c1.105 0 2 .895 2 2v3c0 1.105-.895 2-2 2z" fill="#f9cdae"></path></g><g><path d="m17 61h3c.552 0 1-.448 1-1v-5c0-.552-.448-1-1-1h-3c-1.105 0-2 .895-2 2v3c0 1.105.895 2 2 2z" fill="#f9cdae"></path></g><path d="m43.875 6.989c-.343-1.391-1.468-2.519-2.859-2.863-1.884-.466-3.598.408-4.45 1.853-.777-1.753-2.525-2.979-4.566-2.979s-3.789 1.226-4.566 2.979c-.852-1.444-2.565-2.319-4.45-1.853-1.391.344-2.516 1.472-2.859 2.863-.245.994-.116 1.94.272 2.737.939 1.928 1.603 3.978 1.603 6.123v1.151h20v-1.143c0-2.15.669-4.203 1.607-6.138.385-.795.512-1.739.268-2.73z" fill="#e9f1f2"></path><g><path d="m39 61h-14c-2.209 0-4-1.791-4-4h22c0 2.209-1.791 4-4 4z" fill="#a2bdcd"></path><path d="m40 59h-14c-1.477 0-2.752-.809-3.445-2h-1.555c0 2.209 1.791 4 4 4h14c1.967 0 3.594-1.422 3.929-3.293-.731.79-1.768 1.293-2.929 1.293z" fill="#769fb6"></path></g><path d="m35.135 36.005h-.247c-2.485.001-4.869-.985-6.626-2.743l-.076-.076c-2.047-2.047-3.189-4.806-3.188-7.681.002-3.405.002-2.505.002-2.505h17c0-1.193 0-2 0-2h-20s0 4.1-.002 7.505c-.001 2.875 1.141 5.634 3.188 7.681l.076.076c1.757 1.757 4.141 2.744 6.626 2.743h.247c2.473-.001 4.844-.983 6.61-2.749l.083-.083c.513-.513.969-1.073 1.364-1.669-1.501.97-3.25 1.5-5.057 1.501z" fill="#f6b98d"></path><path d="m43 22v-1h-1v6c1.498 0 2.789-.834 3.474-2.053-1.405-.25-2.474-1.47-2.474-2.947z" fill="#f3a268"></path><path d="m21 22v-1h1v6c-1.498 0-2.789-.834-3.474-2.053 1.405-.25 2.474-1.47 2.474-2.947z" fill="#f3a268"></path><path d="m41.524 13h-13.047c-2.134 0-4.081-1.218-5.014-3.138l-.066-.136c-.382-.785-.513-1.714-.282-2.692.181-.768.607-1.441 1.192-1.97.407-.369.798-.608 1.178-.767-.746-.303-1.602-.393-2.5-.171-1.391.344-2.516 1.472-2.859 2.863-.245.994-.116 1.94.272 2.737.938 1.928 1.602 3.978 1.602 6.123v1.151h20v-1.143c0-.999.149-1.976.398-2.931-.286.046-.577.074-.874.074z" fill="#d0d8da"></path><path d="m45 55v-1h-1c-.552 0-1 .448-1 1v5c0 .552.448 1 1 1h3c1.105 0 2-.895 2-2-2.209 0-4-1.791-4-4z" fill="#f6b98d"></path><path d="m17 55v-1c-1.105 0-2 .895-2 2v3c0 1.105.895 2 2 2h3c.552 0 1-.448 1-1v-1c-2.209 0-4-1.791-4-4z" fill="#f6b98d"></path><g><path d="m24 51h16v6h-16z" fill="#f6b98d"></path><path d="m32.421 55c-2.501 0-4.601-1.696-5.226-4h-3.195v6h16v-2z" fill="#f3a268"></path><path d="m24 51.851v.727c0 .785.637 1.422 1.423 1.422.38 0 .754-.088 1.094-.258l.39-.195c.689-.344 1.499-.344 2.188 0 .58.29 1.252.338 1.867.133l1.078-.359c.615-.205 1.287-.157 1.867.133.689.344 1.499.344 2.188 0 .58-.29 1.252-.338 1.867-.133 1.002.334 2.038-.413 2.038-1.47v-.851c0-.552-.448-1-1-1h-13.149c-1.022 0-1.851.829-1.851 1.851z" fill="#f3a268"></path><path d="m24 50.851v.727c0 .785.637 1.422 1.423 1.422.38 0 .754-.088 1.094-.258l.39-.195c.689-.344 1.499-.344 2.188 0 .58.29 1.252.338 1.867.133l1.078-.359c.615-.205 1.287-.157 1.867.133.689.344 1.499.344 2.188 0 .58-.29 1.252-.338 1.867-.133 1.002.334 2.038-.413 2.038-1.47 0-1.022-.829-1.851-1.851-1.851h-12.298c-1.022 0-1.851.829-1.851 1.851z" fill="#f47c94"></path><circle cx="37" cy="47" fill="#f47c94" r="2"></circle><g fill="#f15574"><path d="m38 48c-1.105 0-2-.895-2-2 0-.293.067-.569.18-.82-.695.313-1.18 1.008-1.18 1.82 0 1.105.895 2 2 2 .811 0 1.507-.485 1.82-1.18-.251.113-.527.18-.82.18z"></path><path d="m38 51h-10c-1.261 0-2.336-.78-2.78-1.882-.71.258-1.22.933-1.22 1.733v.727c0 .785.637 1.422 1.423 1.422.38 0 .754-.088 1.094-.258l.39-.195c.689-.344 1.499-.344 2.188 0 .58.29 1.252.338 1.867.133l1.078-.359c.615-.205 1.287-.157 1.867.133.689.344 1.499.344 2.188 0 .58-.29 1.252-.338 1.867-.133 1.002.334 2.038-.413 2.038-1.47 0-.194-.038-.377-.093-.552-.52.431-1.179.701-1.907.701z"></path></g></g><path d="m42 17h-20c-1.105 0-2 .895-2 2v2h24v-2c0-1.105-.895-2-2-2z" fill="#a2bdcd"></path><path d="m22 17c-1.105 0-2 .895-2 2v2h24v-2h-20c-1.105 0-2-.895-2-2z" fill="#769fb6"></path></g></g><g id="Outline_copy"><g fill="#464a51"><path d="m34.293 32.293c-1.264 1.264-3.322 1.264-4.586 0-.391-.391-1.023-.391-1.414 0s-.391 1.023 0 1.414c1.022 1.022 2.364 1.533 3.707 1.533s2.685-.511 3.707-1.533c.391-.391.391-1.023 0-1.414s-1.023-.391-1.414 0z"></path><path d="m34.707 24.707c.713-.713 1.873-.713 2.586 0 .195.195.451.293.707.293s.512-.098.707-.293c.391-.391.391-1.023 0-1.414-1.492-1.492-3.922-1.492-5.414 0-.391.391-.391 1.023 0 1.414s1.023.391 1.414 0z"></path><path d="m26.707 24.707c.713-.713 1.873-.713 2.586 0 .195.195.451.293.707.293s.512-.098.707-.293c.391-.391.391-1.023 0-1.414-1.492-1.492-3.922-1.492-5.414 0-.391.391-.391 1.023 0 1.414s1.023.391 1.414 0z"></path><circle cx="36" cy="27" r="1"></circle><circle cx="28" cy="27" r="1"></circle><path d="m29.764 29-.211.105c-.339.17-.553.516-.553.895s.214.725.553.895l2 1c.143.071.296.105.446.105.367 0 .72-.202.896-.553.247-.494.047-1.095-.447-1.342l-.534-.267c.69-.763 1.086-1.764 1.086-2.838 0-.553-.447-1-1-1s-1 .447-1 1c0 .853-.474 1.619-1.236 2z"></path><path d="m49 53.78v-4.78c0-5.086-3.821-9.289-8.741-9.912.088-.022.182-.038.269-.061 2.322-.619 4.265-2.106 5.47-4.187 1.204-2.081 1.526-4.506.906-6.828l-.647-2.427c.462-.756.743-1.635.743-2.585 0-1.302-.839-2.402-2-2.816v-1.184c0-1.302-.839-2.402-2-2.816v-.328c0-1.745.493-3.61 1.506-5.701.512-1.054.629-2.231.34-3.405-.431-1.75-1.84-3.161-3.589-3.595-.703-.174-1.407-.204-2.094-.084-.544.093-.91.609-.816 1.154.093.544.602.911 1.154.816.412-.068.843-.052 1.275.055 1.037.257 1.872 1.094 2.128 2.132.176.715.107 1.425-.197 2.054-1.148 2.37-1.707 4.521-1.707 6.574v.144h-18v-.15c0-2.061-.558-4.207-1.704-6.562-.308-.632-.377-1.344-.2-2.06.256-1.038 1.091-1.875 2.128-2.132 1.343-.331 2.654.214 3.349 1.391.19.322.549.514.919.489.374-.021.704-.25.856-.593.642-1.447 2.076-2.383 3.652-2.383s3.01.936 3.652 2.384c.223.504.812.732 1.319.509.505-.224.732-.814.509-1.319-.962-2.172-3.114-3.574-5.48-3.574-1.85 0-3.568.857-4.69 2.269-1.214-1.085-2.906-1.524-4.566-1.113-1.75.433-3.159 1.844-3.59 3.594-.29 1.176-.172 2.355.343 3.413 1.012 2.076 1.503 3.937 1.503 5.687v.335c-1.161.414-2 1.514-2 2.816v1.184c-1.161.414-2 1.514-2 2.816 0 1.232.465 2.347 1.207 3.22l-.385 1.154c-.798 2.393-.551 5.028.678 7.23 1.229 2.203 3.342 3.799 5.799 4.377l.193.045c-5.277.266-9.492 4.631-9.492 9.973v1c0 .553.447 1 1 1s1-.447 1-1v-1c0-4.411 3.589-8 8-8h2.667l2.667 2-2.934 2.2c-.252.189-.4.486-.4.8v2h-1.149c-1.573 0-2.851 1.278-2.851 2.851v5.149h-1v-1c0-1.103-.897-2-2-2h-3c-1.654 0-3 1.346-3 3v3c0 1.654 1.346 3 3 3h3c.808 0 1.502-.484 1.817-1.176.868.723 1.968 1.176 3.183 1.176h8c.553 0 1-.447 1-1s-.447-1-1-1h-8c-1.304 0-2.416-.836-2.829-2h19.658c-.413 1.164-1.525 2-2.829 2h-2c-.553 0-1 .447-1 1s.447 1 1 1h2c1.215 0 2.315-.453 3.183-1.176.315.692 1.009 1.176 1.817 1.176h3c1.654 0 3-1.346 3-3v-3c0-.883-.391-1.67-1-2.22zm-29 6.22h-3c-.552 0-1-.448-1-1v-3c0-.552.448-1 1-1h3zm24.267-26.161c-.937 1.618-2.447 2.774-4.254 3.257-.303.081-.628.141-.942.212.127-.115.259-.224.381-.346l.083-.083c2.236-2.236 3.468-5.21 3.467-8.374v-.606c.589-.12 1.132-.356 1.626-.664l.345 1.293c.481 1.807.23 3.693-.706 5.311zm.733-10.839c0 1.303-.835 2.415-1.999 2.829l-.001-3.829h1c.552 0 1 .448 1 1zm-23-5h20c.552 0 1 .448 1 1v1h-17c-.553 0-1 .447-1 1s.447 1 1 1h15v5c0 .003.002.005.002.008v1.498c.001 2.629-1.022 5.101-2.881 6.959l-.083.083c-1.583 1.583-3.68 2.455-5.902 2.457h-.252c-2.234 0-4.335-.87-5.915-2.45l-.075-.075c-1.868-1.868-2.896-4.345-2.896-6.974v-1.498c0-.003.002-.005.002-.008v-6c0-.553-.447-1-1-1h-1v-1c0-.552.448-1 1-1zm-2 4h1l-.001 3.829c-1.164-.414-1.999-1.526-1.999-2.829 0-.552.448-1 1-1zm.246 11.629c-.97-1.738-1.156-3.735-.527-5.623l.164-.493c.354.167.722.306 1.115.386v.606c-.001 3.163 1.235 6.143 3.481 8.389l.075.075c.003.003.006.006.01.009-1.85-.49-3.38-1.669-4.318-3.349zm8.942 6.012c.869.233 1.772.364 2.696.364h.253c.916-.001 1.811-.131 2.674-.362l-2.811 2.107zm-3.337 10.359h12.299c.468 0 .85.382.85.851 0 .244-.143.384-.228.445-.086.062-.263.15-.495.076-.874-.293-1.809-.226-2.631.187-.406.203-.889.203-1.293 0-.823-.411-1.756-.48-2.631-.187l-1.078.359c-.363.119-.763.091-1.104-.079-.965-.482-2.116-.483-3.083.001l-.387.193c-.2.101-.424.154-.647.154-.234 0-.423-.189-.423-.423v-.727c0-.468.382-.85.851-.85zm10.149-3c0-.552.448-1 1-1s1 .448 1 1-.448 1-1 1-1-.448-1-1zm-11 9v-2.043c.138.025.278.043.423.043.53 0 1.062-.125 1.542-.364l.389-.194c.406-.203.889-.203 1.293 0 .823.412 1.756.48 2.631.187l1.078-.359c.361-.121.763-.09 1.104.079.965.482 2.117.482 3.082 0 .34-.17.744-.199 1.104-.078.445.147.911.154 1.355.055v2.674zm16-5.149c0-1.031-.554-1.926-1.376-2.427.232-.426.376-.906.376-1.424 0-.85-.359-1.615-.929-2.161.014-.014.027-.031.042-.04.049-.031.131-.061.229-.01l.211.105c.495.245 1.094.047 1.342-.447.247-.494.047-1.095-.447-1.342l-.212-.105c-.698-.349-1.511-.312-2.176.098-.368.227-.643.553-.825.926-.078-.006-.154-.024-.235-.024-1.654 0-3 1.346-3 3 0 .352.072.686.184 1h-5.184v-1.5l7.333-5.5h2.667c4.411 0 8 3.589 8 8v4h-3c-1.103 0-2 .897-2 2v1h-1zm7 8.149c0 .552-.448 1-1 1h-3v-5h3c.552 0 1 .448 1 1z"></path><path d="m27 10v3c0 .553.447 1 1 1s1-.447 1-1v-3c0-.553-.447-1-1-1s-1 .447-1 1z"></path><path d="m36 9c-.553 0-1 .447-1 1v3c0 .553.447 1 1 1s1-.447 1-1v-3c0-.553-.447-1-1-1z"></path></g></g></svg>